<svg xmlns="http://www.w3.org/2000/svg" viewBox="0 0 400 100" width="400" height="100">
  <defs>
    <linearGradient id="iconGrad" x1="0%" y1="0%" x2="100%" y2="100%">
      <stop offset="0%" style="stop-color:#3B82F6"/>
      <stop offset="100%" style="stop-color:#8B5CF6"/>
    </linearGradient>
  </defs>

  <!-- Icon -->
  <rect x="5" y="10" width="80" height="80" rx="16" fill="url(#iconGrad)"/>

  <!-- Chat bubble -->
  <path d="M20 28
           Q20 20 28 20
           L72 20
           Q80 20 80 28
           L80 58
           Q80 66 72 66
           L40 66
           L28 78
           L28 66
           Q20 66 20 58
           Z"
        fill="white"/>

  <!-- Checks -->
  <path d="M28 38 L32 42 L40 32" fill="none" stroke="#3B82F6" stroke-width="3" stroke-linecap="round" stroke-linejoin="round"/>
  <rect x="46" y="35" width="26" height="5" rx="2.5" fill="#E0E7FF"/>

  <path d="M28 52 L32 56 L40 46" fill="none" stroke="#8B5CF6" stroke-width="3" stroke-linecap="round" stroke-linejoin="round"/>
  <rect x="46" y="49" width="18" height="5" rx="2.5" fill="#EDE9FE"/>

  <!-- Text -->
  <text x="100" y="62" font-family="system-ui, -apple-system, sans-serif" font-size="36" font-weight="700" fill="#1F2937">Chat</text>
  <text x="188" y="62" font-family="system-ui, -apple-system, sans-serif" font-size="36" font-weight="700" fill="url(#iconGrad)">Survey</text>
</svg>